<?xml version="1.0" encoding="UTF-8"?>
<svg xmlns="http://www.w3.org/2000/svg" xmlns:xlink="http://www.w3.org/1999/xlink" viewBox="0 0 48 48" width="48px" height="48px">
<g id="surface322534450">
<path style=" stroke:none;fill-rule:nonzero;fill:rgb(51.764709%,30.588236%,95.686275%);fill-opacity:1;" d="M 24 4 C 13 4 4 13 4 24 C 4 35 13 44 24 44 C 35 44 44 35 44 24 C 44 13 35 4 24 4 Z M 31.5 27 L 23.5 27 C 22.699219 27 22 26.300781 22 25.5 L 22 13.5 C 22 12.699219 22.699219 12 23.5 12 C 24.300781 12 25 12.699219 25 13.5 L 25 24 L 31.5 24 C 32.300781 24 33 24.699219 33 25.5 C 33 26.300781 32.300781 27 31.5 27 Z M 31.5 27 "/>
</g>
</svg>
