<svg id="Ondas" xmlns="http://www.w3.org/2000/svg" viewBox="0 0 186.98 110.7"><defs><style>.cls-1{fill:#9878ef;}.cls-2,.cls-4{fill:#844ef4;}.cls-3{font-size:50.44px;fill:#fff;font-family:MADETOMMY-ExtraBold, MADE TOMMY;font-weight:800;}.cls-4{letter-spacing:-0.02em;}</style></defs><path class="cls-1" d="M83.12,156.71a2.16,2.16,0,0,1-1.93-2c0-.22,0-.45,0-.67,0-3.38,0-6.75,0-10.13a5.55,5.55,0,0,0-5.83-5.77,5.47,5.47,0,0,0-5.2,5.24c-.06,3.58,0,7.17,0,10.75a4.27,4.27,0,0,1-.08.94,2.16,2.16,0,0,1-2.3,1.63,2.13,2.13,0,0,1-2-2c0-1.18,0-2.35,0-3.53a5.53,5.53,0,0,0-11.06-.07v.22q0,10.47,0,20.93a5.53,5.53,0,0,0,11,.23c0-1.12,0-2.24,0-3.36a2.17,2.17,0,1,1,4.34,0c0,5.18,0,10.37,0,15.55a5.49,5.49,0,0,0,3.5,5.35c.43.17.88.27,1.33.4H76.4l.95-.28a5.56,5.56,0,0,0,3.82-5.59c0-5.07,0-10.14,0-15.21a3.67,3.67,0,0,1,.15-1.15,2.13,2.13,0,0,1,2.28-1.37c.13-3.38.24-6.76.26-10.16A1.88,1.88,0,0,1,83.12,156.71Z" transform="translate(-54.69 -80.77)"/><path class="cls-2" d="M111.69,149.45A5.52,5.52,0,0,0,100.93,151c0,1.14,0,2.28,0,3.41a2.18,2.18,0,1,1-4.35,0q0-7.74,0-15.49a5.45,5.45,0,0,0-2.78-5,5.51,5.51,0,0,0-8.24,4.3c0,.35,0,.7,0,1.06q0,7.47,0,14.94a3.71,3.71,0,0,1-.1,1,2.12,2.12,0,0,1-1.53,1.45c0,3.4-.13,6.78-.26,10.16h0a2.16,2.16,0,0,1,1.84,2c0,.24,0,.49,0,.73,0,3.37,0,6.75,0,10.12a5.54,5.54,0,0,0,5.75,5.74,5.46,5.46,0,0,0,5.28-5.27c.06-3.59,0-7.19,0-10.79a3.41,3.41,0,0,1,.16-1.1,2.16,2.16,0,0,1,4.18.71c0,1.18,0,2.35,0,3.52a5.53,5.53,0,0,0,10.94,1c0-.12.08-.24.11-.36V150.45C111.89,150.12,111.8,149.78,111.69,149.45Z" transform="translate(-54.69 -80.77)"/><text x="-54.69" y="-80.77"/><text class="cls-3" transform="translate(62.48 97.83)">Bri<tspan class="cls-4" x="67.59" y="0">v</tspan><tspan class="cls-2" x="95.74" y="0">e</tspan></text></svg>