<svg id="Ondas" xmlns="http://www.w3.org/2000/svg" viewBox="0 0 166.24 51.18"><defs><style>.cls-1{fill:#9878ef;}.cls-2{fill:#844ef4;}.cls-3{isolation:isolate;}.cls-4{fill:#fff;}</style></defs><path class="cls-1" d="M34.82,58.23a2,2,0,0,1-1.73-1.79V46.78a5,5,0,0,0-4.75-5.16h-.46a4.89,4.89,0,0,0-4.65,4.69c-.05,3.2,0,6.41,0,9.61a4,4,0,0,1-.07.84,1.94,1.94,0,0,1-2.06,1.46,1.92,1.92,0,0,1-1.79-1.79V53.27a4.95,4.95,0,0,0-9.89-.06V72.12a4.95,4.95,0,0,0,9.84.21v-3a1.94,1.94,0,0,1,3.88,0h0V83.23A4.9,4.9,0,0,0,26.27,88c.38.15.79.24,1.19.36h1.35l.85-.25a5,5,0,0,0,3.42-5V69.52a3.24,3.24,0,0,1,.13-1,1.91,1.91,0,0,1,2-1.22c.11-3,.21-6,.23-9.09A1.85,1.85,0,0,1,34.82,58.23Z" transform="translate(-9.42 -37.19)"/><path class="cls-2" d="M60.37,51.73a4.94,4.94,0,0,0-9.63,1.39v3.05a1.95,1.95,0,1,1-3.89.26V42.32a4.85,4.85,0,0,0-2.48-4.47A4.93,4.93,0,0,0,37,41.69V56a3.32,3.32,0,0,1-.09.89,1.88,1.88,0,0,1-1.37,1.3c0,3-.11,6.06-.23,9.08h0A2,2,0,0,1,37,69.06v9.7a5,5,0,0,0,4.76,5.14h.38a4.89,4.89,0,0,0,4.72-4.72c0-3.21,0-6.42,0-9.64a3,3,0,0,1,.14-1,1.93,1.93,0,0,1,3.74.64v3.15a4.94,4.94,0,0,0,9.78.89,1.19,1.19,0,0,1,.1-.32V52.63A5.86,5.86,0,0,0,60.37,51.73Z" transform="translate(-9.42 -37.19)"/><g class="cls-3"><g class="cls-3"><path class="cls-4" d="M93.64,68.46c0,6.09-4.11,9.34-12.68,9.34H67.75V46.23h12c8.71,0,12.72,2.75,12.72,8.52a6.6,6.6,0,0,1-3.7,6.36v.18C91.83,62.64,93.64,65,93.64,68.46ZM77.08,53.13v5.64h2.26c2.39,0,3.65-1,3.65-2.85s-1.44-2.79-3.65-2.79Zm7.13,14.52c0-1.94-1.35-2.84-3.65-2.84H77.08v5.73h3.48C82.81,70.54,84.21,69.55,84.21,67.65Z" transform="translate(-9.42 -37.19)"/><path class="cls-4" d="M112,54.39v8.8c-6.14-.73-6.82,2.34-6.82,6V77.8H97V54.93h8.11v3.61A8.1,8.1,0,0,1,112,54.39Z" transform="translate(-9.42 -37.19)"/><path class="cls-4" d="M115.15,48.53a4.24,4.24,0,1,1,4.24,4.24A4.23,4.23,0,0,1,115.15,48.53Zm.18,6.4h8.12V77.8h-8.12Z" transform="translate(-9.42 -37.19)"/></g><g class="cls-3"><path class="cls-2" d="M151.55,54.93,142.66,77.8h-7.89l-8.84-22.87h8.57l4.24,13.35L143,54.93Z" transform="translate(-9.42 -37.19)"/></g><g class="cls-3"><path class="cls-2" d="M175.55,68.6l-15.84,0c.63,2.17,2.35,3.43,5,3.43A5.64,5.64,0,0,0,169,70.18l5.46,3.24c-1.63,2.85-5.23,5-9.7,5-7.71,0-12.94-4.83-12.94-12a11.82,11.82,0,0,1,12.08-12C170.63,54.39,176.58,59.35,175.55,68.6Zm-7.45-4.42a4,4,0,0,0-4.24-3.47,4.3,4.3,0,0,0-4.15,3.51Z" transform="translate(-9.42 -37.19)"/></g></g></svg>